frame:0    pts:60928   pts_time:4.76
lavfi.scene_score=0.421061
frame:1    pts:97280   pts_time:7.6
lavfi.scene_score=0.538078
frame:2    pts:133632  pts_time:10.44
lavfi.scene_score=0.318288
frame:3    pts:147456  pts_time:11.52
lavfi.scene_score=0.555381
frame:4    pts:270848  pts_time:21.16
lavfi.scene_score=0.418656
frame:5    pts:307712  pts_time:24.04
lavfi.scene_score=0.441223
frame:6    pts:448512  pts_time:35.04
lavfi.scene_score=0.253104
frame:7    pts:658944  pts_time:51.48
lavfi.scene_score=0.401083
frame:8    pts:814592  pts_time:63.64
lavfi.scene_score=0.482173
frame:9    pts:840704  pts_time:65.68
lavfi.scene_score=0.260308
frame:10   pts:896512  pts_time:70.04
lavfi.scene_score=0.333183
frame:11   pts:910848  pts_time:71.16
lavfi.scene_score=0.419638
frame:12   pts:1123840 pts_time:87.8
lavfi.scene_score=0.421557
frame:13   pts:1161728 pts_time:90.76
lavfi.scene_score=0.467177
frame:14   pts:1723392 pts_time:134.64
lavfi.scene_score=0.311284
frame:15   pts:1768448 pts_time:138.16
lavfi.scene_score=0.485567
frame:16   pts:1803776 pts_time:140.92
lavfi.scene_score=0.334239
frame:17   pts:1936384 pts_time:151.28
lavfi.scene_score=0.404216
frame:18   pts:1952768 pts_time:152.56
lavfi.scene_score=0.334192
frame:19   pts:1963008 pts_time:153.36
lavfi.scene_score=0.294982
frame:20   pts:1964032 pts_time:153.44
lavfi.scene_score=0.957175
frame:21   pts:1965056 pts_time:153.52
lavfi.scene_score=0.701999
frame:22   pts:1966592 pts_time:153.64
lavfi.scene_score=0.270375
frame:23   pts:1967104 pts_time:153.68
lavfi.scene_score=0.347284
frame:24   pts:1975808 pts_time:154.36
lavfi.scene_score=0.284071
frame:25   pts:1977856 pts_time:154.52
lavfi.scene_score=0.527363
frame:26   pts:1979392 pts_time:154.64
lavfi.scene_score=0.643713
frame:27   pts:1981440 pts_time:154.8
lavfi.scene_score=0.629554
frame:28   pts:1984000 pts_time:155
lavfi.scene_score=0.460661
frame:29   pts:1990144 pts_time:155.48
lavfi.scene_score=0.320045
frame:30   pts:1993728 pts_time:155.76
lavfi.scene_score=0.654041
frame:31   pts:2030080 pts_time:158.6
lavfi.scene_score=0.418753
frame:32   pts:2167808 pts_time:169.36
lavfi.scene_score=0.621843
frame:33   pts:2370560 pts_time:185.2
lavfi.scene_score=0.621365
frame:34   pts:2753536 pts_time:215.12
lavfi.scene_score=0.453009
frame:35   pts:2824704 pts_time:220.68
lavfi.scene_score=0.292434
frame:36   pts:2845184 pts_time:222.28
lavfi.scene_score=0.415174
frame:37   pts:3194880 pts_time:249.6
lavfi.scene_score=0.632917
frame:38   pts:3258368 pts_time:254.56
lavfi.scene_score=0.283341
frame:39   pts:3276288 pts_time:255.96
lavfi.scene_score=0.363136
frame:40   pts:3290624 pts_time:257.08
lavfi.scene_score=0.416679
frame:41   pts:3308032 pts_time:258.44
lavfi.scene_score=0.431197
frame:42   pts:3329536 pts_time:260.12
lavfi.scene_score=0.389968
frame:43   pts:3454976 pts_time:269.92
lavfi.scene_score=0.788580
frame:44   pts:3474432 pts_time:271.44
lavfi.scene_score=0.874317
frame:45   pts:3509248 pts_time:274.16
lavfi.scene_score=0.449177
frame:46   pts:3528192 pts_time:275.64
lavfi.scene_score=0.702880
frame:47   pts:3530240 pts_time:275.8
lavfi.scene_score=0.479504
frame:48   pts:3550208 pts_time:277.36
lavfi.scene_score=0.456074
frame:49   pts:3551232 pts_time:277.44
lavfi.scene_score=0.481761
frame:50   pts:3558912 pts_time:278.04
lavfi.scene_score=0.491156
frame:51   pts:3559936 pts_time:278.12
lavfi.scene_score=0.699107
frame:52   pts:3592192 pts_time:280.64
lavfi.scene_score=0.480010
frame:53   pts:3648000 pts_time:285
lavfi.scene_score=0.412432
frame:54   pts:3670528 pts_time:286.76
lavfi.scene_score=0.341194
frame:55   pts:3850752 pts_time:300.84
lavfi.scene_score=0.317505
frame:56   pts:3915264 pts_time:305.88
lavfi.scene_score=0.380884
frame:57   pts:4056064 pts_time:316.88
lavfi.scene_score=0.445550
frame:58   pts:4083712 pts_time:319.04
lavfi.scene_score=0.373592
frame:59   pts:4174336 pts_time:326.12
lavfi.scene_score=0.432833
frame:60   pts:4224512 pts_time:330.04
lavfi.scene_score=0.432014
frame:61   pts:4319744 pts_time:337.48
lavfi.scene_score=0.303226
frame:62   pts:4348928 pts_time:339.76
lavfi.scene_score=0.373947
frame:63   pts:4464128 pts_time:348.76
lavfi.scene_score=0.415824
frame:64   pts:4488192 pts_time:350.64
lavfi.scene_score=0.403220
frame:65   pts:4572672 pts_time:357.24
lavfi.scene_score=0.335305
frame:66   pts:4626432 pts_time:361.44
lavfi.scene_score=0.406647
frame:67   pts:4640768 pts_time:362.56
lavfi.scene_score=0.364323
frame:68   pts:4674560 pts_time:365.2
lavfi.scene_score=0.275063
frame:69   pts:4687872 pts_time:366.24
lavfi.scene_score=0.424423
frame:70   pts:4701184 pts_time:367.28
lavfi.scene_score=0.288297
frame:71   pts:4713984 pts_time:368.28
lavfi.scene_score=0.337427
frame:72   pts:4791808 pts_time:374.36
lavfi.scene_score=0.282987
frame:73   pts:4807168 pts_time:375.56
lavfi.scene_score=0.303222
frame:74   pts:4826112 pts_time:377.04
lavfi.scene_score=0.295546
frame:75   pts:4860928 pts_time:379.76
lavfi.scene_score=0.332579
frame:76   pts:4880896 pts_time:381.32
lavfi.scene_score=0.294264
frame:77   pts:5026304 pts_time:392.68
lavfi.scene_score=0.306197
frame:78   pts:5170176 pts_time:403.92
lavfi.scene_score=0.404518
frame:79   pts:5272064 pts_time:411.88
lavfi.scene_score=0.362123
frame:80   pts:5312512 pts_time:415.04
lavfi.scene_score=0.372281
frame:81   pts:5539840 pts_time:432.8
lavfi.scene_score=0.404945
frame:82   pts:5599744 pts_time:437.48
lavfi.scene_score=0.394939
frame:83   pts:5676544 pts_time:443.48
lavfi.scene_score=0.573855
frame:84   pts:5711360 pts_time:446.2
lavfi.scene_score=0.323253
frame:85   pts:5786624 pts_time:452.08
lavfi.scene_score=0.417381
frame:86   pts:5870592 pts_time:458.64
lavfi.scene_score=0.320288
frame:87   pts:5915648 pts_time:462.16
lavfi.scene_score=0.341688
frame:88   pts:5956608 pts_time:465.36
lavfi.scene_score=0.344032
frame:89   pts:6029824 pts_time:471.08
lavfi.scene_score=0.422146
frame:90   pts:6118912 pts_time:478.04
lavfi.scene_score=0.377379
frame:91   pts:6159872 pts_time:481.24
lavfi.scene_score=0.429294
frame:92   pts:6202880 pts_time:484.6
lavfi.scene_score=0.280217
frame:93   pts:6231040 pts_time:486.8
lavfi.scene_score=0.347905
frame:94   pts:6250496 pts_time:488.32
lavfi.scene_score=0.430715
frame:95   pts:6266880 pts_time:489.6
lavfi.scene_score=0.443525
frame:96   pts:6670848 pts_time:521.16
lavfi.scene_score=0.391584
frame:97   pts:7031296 pts_time:549.32
lavfi.scene_score=0.461714
frame:98   pts:7054336 pts_time:551.12
lavfi.scene_score=0.383114
frame:99   pts:7102976 pts_time:554.92
lavfi.scene_score=0.502621
frame:100  pts:7354368 pts_time:574.56
lavfi.scene_score=0.644276
frame:101  pts:7380992 pts_time:576.64
lavfi.scene_score=0.677890
frame:102  pts:7417344 pts_time:579.48
lavfi.scene_score=0.442392
frame:103  pts:7448064 pts_time:581.88
lavfi.scene_score=0.386198
frame:104  pts:7465984 pts_time:583.28
lavfi.scene_score=0.388739
frame:105  pts:7503360 pts_time:586.2
lavfi.scene_score=0.302087
frame:106  pts:7549440 pts_time:589.8
lavfi.scene_score=0.532207
frame:107  pts:7624192 pts_time:595.64
lavfi.scene_score=0.394511
frame:108  pts:7649792 pts_time:597.64
lavfi.scene_score=0.424770
frame:109  pts:7804928 pts_time:609.76
lavfi.scene_score=0.438842
frame:110  pts:7821312 pts_time:611.04
lavfi.scene_score=0.391966
frame:111  pts:7980544 pts_time:623.48
lavfi.scene_score=0.469021
frame:112  pts:8026624 pts_time:627.08
lavfi.scene_score=0.389912
frame:113  pts:8137728 pts_time:635.76
lavfi.scene_score=0.630596
frame:114  pts:8192000 pts_time:640
lavfi.scene_score=0.725733
frame:115  pts:8324608 pts_time:650.36
lavfi.scene_score=0.321587
frame:116  pts:8414720 pts_time:657.4
lavfi.scene_score=0.428442
frame:117  pts:8561152 pts_time:668.84
lavfi.scene_score=0.280470
frame:118  pts:8635392 pts_time:674.64
lavfi.scene_score=0.698796
frame:119  pts:8712192 pts_time:680.64
lavfi.scene_score=0.360132
frame:120  pts:8833024 pts_time:690.08
lavfi.scene_score=0.487189
frame:121  pts:8873472 pts_time:693.24
lavfi.scene_score=0.527958
frame:122  pts:8929792 pts_time:697.64
lavfi.scene_score=0.484309
frame:123  pts:8950784 pts_time:699.28
lavfi.scene_score=0.468157
frame:124  pts:8990720 pts_time:702.4
lavfi.scene_score=0.403318
frame:125  pts:9036800 pts_time:706
lavfi.scene_score=0.347844
frame:126  pts:9053184 pts_time:707.28
lavfi.scene_score=0.307172
frame:127  pts:9093632 pts_time:710.44
lavfi.scene_score=0.297981
frame:128  pts:9131008 pts_time:713.36
lavfi.scene_score=0.317947
frame:129  pts:9167872 pts_time:716.24
lavfi.scene_score=0.503255
frame:130  pts:9189888 pts_time:717.96
lavfi.scene_score=0.542025
frame:131  pts:9212416 pts_time:719.72
lavfi.scene_score=0.816032
frame:132  pts:9232384 pts_time:721.28
lavfi.scene_score=0.358328
frame:133  pts:9281024 pts_time:725.08
lavfi.scene_score=0.536050
frame:134  pts:9296896 pts_time:726.32
lavfi.scene_score=0.438418
frame:135  pts:9306112 pts_time:727.04
lavfi.scene_score=0.993712
frame:136  pts:9307648 pts_time:727.16
lavfi.scene_score=0.508381
frame:137  pts:9370112 pts_time:732.04
lavfi.scene_score=0.385284
frame:138  pts:9742336 pts_time:761.12
lavfi.scene_score=0.364903
frame:139  pts:9760768 pts_time:762.56
lavfi.scene_score=0.399506
frame:140  pts:9791488 pts_time:764.96
lavfi.scene_score=0.326926
frame:141  pts:9836032 pts_time:768.44
lavfi.scene_score=0.604226
frame:142  pts:10115072 pts_time:790.24
lavfi.scene_score=0.466657
frame:143  pts:10142208 pts_time:792.36
lavfi.scene_score=0.538506
frame:144  pts:10250240 pts_time:800.8
lavfi.scene_score=0.422860
frame:145  pts:10459648 pts_time:817.16
lavfi.scene_score=0.299064
frame:146  pts:10489344 pts_time:819.48
lavfi.scene_score=0.478297
frame:147  pts:10589696 pts_time:827.32
lavfi.scene_score=0.566831
frame:148  pts:10796544 pts_time:843.48
lavfi.scene_score=0.365024
frame:149  pts:11025920 pts_time:861.4
lavfi.scene_score=0.266696
frame:150  pts:11236864 pts_time:877.88
lavfi.scene_score=0.264934
frame:151  pts:11278848 pts_time:881.16
lavfi.scene_score=0.402956
frame:152  pts:11370496 pts_time:888.32
lavfi.scene_score=0.358602
frame:153  pts:11382784 pts_time:889.28
lavfi.scene_score=0.613428
frame:154  pts:11415552 pts_time:891.84
lavfi.scene_score=0.509827
frame:155  pts:11592704 pts_time:905.68
lavfi.scene_score=0.320861
frame:156  pts:11667456 pts_time:911.52
lavfi.scene_score=0.330041
frame:157  pts:11723264 pts_time:915.88
lavfi.scene_score=0.466633
frame:158  pts:11771392 pts_time:919.64
lavfi.scene_score=0.706291
frame:159  pts:11969024 pts_time:935.08
lavfi.scene_score=0.494888
frame:160  pts:12109824 pts_time:946.08
lavfi.scene_score=0.678858
frame:161  pts:12138496 pts_time:948.32
lavfi.scene_score=0.478427
frame:162  pts:12161536 pts_time:950.12
lavfi.scene_score=0.372923
frame:163  pts:12175360 pts_time:951.2
lavfi.scene_score=0.407709
frame:164  pts:12205056 pts_time:953.52
lavfi.scene_score=0.334457
frame:165  pts:12243968 pts_time:956.56
lavfi.scene_score=0.444771
frame:166  pts:12323328 pts_time:962.76
lavfi.scene_score=0.491890
frame:167  pts:12337664 pts_time:963.88
lavfi.scene_score=0.452569
frame:168  pts:12388352 pts_time:967.84
lavfi.scene_score=0.440691
frame:169  pts:12422656 pts_time:970.52
lavfi.scene_score=0.412970
frame:170  pts:12551168 pts_time:980.56
lavfi.scene_score=0.401409
frame:171  pts:12625920 pts_time:986.4
lavfi.scene_score=0.400954
frame:172  pts:12867584 pts_time:1005.28
lavfi.scene_score=0.457752
frame:173  pts:13033472 pts_time:1018.24
lavfi.scene_score=0.503186
frame:174  pts:13053440 pts_time:1019.8
lavfi.scene_score=0.479592
frame:175  pts:13075456 pts_time:1021.52
lavfi.scene_score=0.504694
frame:176  pts:13091328 pts_time:1022.76
lavfi.scene_score=0.512638
frame:177  pts:13123584 pts_time:1025.28
lavfi.scene_score=0.514950
frame:178  pts:13141504 pts_time:1026.68
lavfi.scene_score=0.521184
frame:179  pts:13164544 pts_time:1028.48
lavfi.scene_score=0.507433
frame:180  pts:13191168 pts_time:1030.56
lavfi.scene_score=0.523352
frame:181  pts:13248000 pts_time:1035
lavfi.scene_score=0.760061
frame:182  pts:13549056 pts_time:1058.52
lavfi.scene_score=0.938577
frame:183  pts:13618688 pts_time:1063.96
lavfi.scene_score=0.502832
frame:184  pts:13639680 pts_time:1065.6
lavfi.scene_score=0.378169
frame:185  pts:13705728 pts_time:1070.76
lavfi.scene_score=0.530349
frame:186  pts:13742592 pts_time:1073.64
lavfi.scene_score=0.583823
frame:187  pts:13813248 pts_time:1079.16
lavfi.scene_score=0.475161
frame:188  pts:13838848 pts_time:1081.16
lavfi.scene_score=0.494119
frame:189  pts:13855232 pts_time:1082.44
lavfi.scene_score=0.468780
frame:190  pts:13875200 pts_time:1084
lavfi.scene_score=0.518533
frame:191  pts:13962240 pts_time:1090.8
lavfi.scene_score=0.539580
frame:192  pts:14012416 pts_time:1094.72
lavfi.scene_score=0.524540
frame:193  pts:14123520 pts_time:1103.4
lavfi.scene_score=0.479606
frame:194  pts:14379520 pts_time:1123.4
lavfi.scene_score=0.553715
frame:195  pts:14408704 pts_time:1125.68
lavfi.scene_score=0.447956
frame:196  pts:14500352 pts_time:1132.84
lavfi.scene_score=0.440838
frame:197  pts:14611456 pts_time:1141.52
lavfi.scene_score=0.454484
frame:198  pts:14656000 pts_time:1145
lavfi.scene_score=0.597260
frame:199  pts:14870016 pts_time:1161.72
lavfi.scene_score=0.574890
frame:200  pts:14899712 pts_time:1164.04
lavfi.scene_score=0.391460
frame:201  pts:14943232 pts_time:1167.44
lavfi.scene_score=0.415199
frame:202  pts:14974976 pts_time:1169.92
lavfi.scene_score=0.514466
frame:203  pts:15012352 pts_time:1172.84
lavfi.scene_score=0.672455
frame:204  pts:15547904 pts_time:1214.68
lavfi.scene_score=0.660567
frame:205  pts:15580160 pts_time:1217.2
lavfi.scene_score=0.490064
frame:206  pts:15654400 pts_time:1223
lavfi.scene_score=0.408813
frame:207  pts:15739392 pts_time:1229.64
lavfi.scene_score=0.310785
frame:208  pts:16040960 pts_time:1253.2
lavfi.scene_score=0.667268
frame:209  pts:16066048 pts_time:1255.16
lavfi.scene_score=0.516663
frame:210  pts:16097280 pts_time:1257.6
lavfi.scene_score=0.561508
frame:211  pts:16164352 pts_time:1262.84
lavfi.scene_score=0.576733
frame:212  pts:16243200 pts_time:1269
lavfi.scene_score=0.625308
frame:213  pts:16284160 pts_time:1272.2
lavfi.scene_score=0.612989
frame:214  pts:16324608 pts_time:1275.36
lavfi.scene_score=0.582078
frame:215  pts:16369152 pts_time:1278.84
lavfi.scene_score=0.482426
frame:216  pts:16485376 pts_time:1287.92
lavfi.scene_score=0.538677
frame:217  pts:16551936 pts_time:1293.12
lavfi.scene_score=0.561678
frame:218  pts:16631296 pts_time:1299.32
lavfi.scene_score=0.545254
frame:219  pts:16685568 pts_time:1303.56
lavfi.scene_score=0.570224
frame:220  pts:16711168 pts_time:1305.56
lavfi.scene_score=0.541689
frame:221  pts:16775168 pts_time:1310.56
lavfi.scene_score=0.581938
frame:222  pts:16858112 pts_time:1317.04
lavfi.scene_score=0.566345
frame:223  pts:16907776 pts_time:1320.92
lavfi.scene_score=0.610371
frame:224  pts:16980480 pts_time:1326.6
lavfi.scene_score=0.438557
frame:225  pts:17005568 pts_time:1328.56
lavfi.scene_score=0.456181
frame:226  pts:17043968 pts_time:1331.56
lavfi.scene_score=0.590661
frame:227  pts:17224192 pts_time:1345.64
lavfi.scene_score=0.709772
frame:228  pts:17326592 pts_time:1353.64
lavfi.scene_score=0.676616
frame:229  pts:17372672 pts_time:1357.24
lavfi.scene_score=0.654150
frame:230  pts:17402880 pts_time:1359.6
lavfi.scene_score=0.627944
frame:231  pts:17540096 pts_time:1370.32
lavfi.scene_score=0.376027
frame:232  pts:17786880 pts_time:1389.6
lavfi.scene_score=0.564517
frame:233  pts:17932800 pts_time:1401
lavfi.scene_score=0.260872
frame:234  pts:18052608 pts_time:1410.36
lavfi.scene_score=0.428264
frame:235  pts:18062848 pts_time:1411.16
lavfi.scene_score=0.375290
frame:236  pts:18075648 pts_time:1412.16
lavfi.scene_score=0.656150
frame:237  pts:18089984 pts_time:1413.28
lavfi.scene_score=0.480228
frame:238  pts:18134016 pts_time:1416.72
lavfi.scene_score=0.473456
frame:239  pts:18155008 pts_time:1418.36
lavfi.scene_score=0.478511
frame:240  pts:18200064 pts_time:1421.88
lavfi.scene_score=0.455427
frame:241  pts:18211840 pts_time:1422.8
lavfi.scene_score=0.456264
frame:242  pts:18251264 pts_time:1425.88
lavfi.scene_score=0.564498
frame:243  pts:18278912 pts_time:1428.04
lavfi.scene_score=0.525653
frame:244  pts:18294272 pts_time:1429.24
lavfi.scene_score=0.727934
frame:245  pts:18298368 pts_time:1429.56
lavfi.scene_score=0.397066
frame:246  pts:18308096 pts_time:1430.32
lavfi.scene_score=0.412457
frame:247  pts:18309120 pts_time:1430.4
lavfi.scene_score=0.540936
frame:248  pts:18310144 pts_time:1430.48
lavfi.scene_score=0.430174
frame:249  pts:18311680 pts_time:1430.6
lavfi.scene_score=0.678747
frame:250  pts:18337280 pts_time:1432.6
lavfi.scene_score=0.417132
frame:251  pts:18368000 pts_time:1435
lavfi.scene_score=0.431821
frame:252  pts:18379264 pts_time:1435.88
lavfi.scene_score=0.534093
frame:253  pts:18383360 pts_time:1436.2
lavfi.scene_score=0.453792
frame:254  pts:18385920 pts_time:1436.4
lavfi.scene_score=0.663939
frame:255  pts:18387456 pts_time:1436.52
lavfi.scene_score=0.414260
frame:256  pts:18391040 pts_time:1436.8
lavfi.scene_score=0.278657
frame:257  pts:18393088 pts_time:1436.96
lavfi.scene_score=0.799165
frame:258  pts:18395648 pts_time:1437.16
lavfi.scene_score=0.801457
frame:259  pts:18396672 pts_time:1437.24
lavfi.scene_score=0.734336
frame:260  pts:18398208 pts_time:1437.36
lavfi.scene_score=0.347987
frame:261  pts:18400256 pts_time:1437.52
lavfi.scene_score=0.400368
frame:262  pts:18418176 pts_time:1438.92
lavfi.scene_score=0.482398
frame:263  pts:18464256 pts_time:1442.52
lavfi.scene_score=0.431863
frame:264  pts:18499584 pts_time:1445.28
lavfi.scene_score=0.488126
frame:265  pts:18526720 pts_time:1447.4
lavfi.scene_score=0.398085
frame:266  pts:18544128 pts_time:1448.76
lavfi.scene_score=0.739859
frame:267  pts:18702848 pts_time:1461.16
lavfi.scene_score=0.896021
frame:268  pts:18779648 pts_time:1467.16
lavfi.scene_score=0.619427
frame:269  pts:18902016 pts_time:1476.72
lavfi.scene_score=0.419380
frame:270  pts:18959360 pts_time:1481.2
lavfi.scene_score=0.424988
frame:271  pts:19032576 pts_time:1486.92
lavfi.scene_score=0.408668
frame:272  pts:19121152 pts_time:1493.84
lavfi.scene_score=0.422248
frame:273  pts:19161600 pts_time:1497
lavfi.scene_score=0.396187
frame:274  pts:19245056 pts_time:1503.52
lavfi.scene_score=0.433792
frame:275  pts:19364864 pts_time:1512.88
lavfi.scene_score=0.478438
frame:276  pts:19429888 pts_time:1517.96
lavfi.scene_score=0.697060
frame:277  pts:19452928 pts_time:1519.76
lavfi.scene_score=0.517795
frame:278  pts:19488256 pts_time:1522.52
lavfi.scene_score=0.543747
frame:279  pts:19564544 pts_time:1528.48
lavfi.scene_score=0.479155
frame:280  pts:19646464 pts_time:1534.88
lavfi.scene_score=0.580408
frame:281  pts:19692544 pts_time:1538.48
lavfi.scene_score=0.594193
frame:282  pts:19802112 pts_time:1547.04
lavfi.scene_score=0.606530
frame:283  pts:19841536 pts_time:1550.12
lavfi.scene_score=0.594531
frame:284  pts:19862528 pts_time:1551.76
lavfi.scene_score=0.606310
frame:285  pts:19902976 pts_time:1554.92
lavfi.scene_score=0.608251
frame:286  pts:19959296 pts_time:1559.32
lavfi.scene_score=0.640807
frame:287  pts:20010496 pts_time:1563.32
lavfi.scene_score=0.595632
frame:288  pts:20031488 pts_time:1564.96
lavfi.scene_score=0.584800
frame:289  pts:20049920 pts_time:1566.4
lavfi.scene_score=0.596480
frame:290  pts:20065792 pts_time:1567.64
lavfi.scene_score=0.599979
frame:291  pts:20203520 pts_time:1578.4
lavfi.scene_score=0.691809
frame:292  pts:20258304 pts_time:1582.68
lavfi.scene_score=0.656427
frame:293  pts:20925440 pts_time:1634.8
lavfi.scene_score=0.461508
frame:294  pts:20947968 pts_time:1636.56
lavfi.scene_score=0.495642
frame:295  pts:20977152 pts_time:1638.84
lavfi.scene_score=0.585941
frame:296  pts:21034496 pts_time:1643.32
lavfi.scene_score=0.501720
frame:297  pts:21062144 pts_time:1645.48
lavfi.scene_score=0.467771
frame:298  pts:21145600 pts_time:1652
lavfi.scene_score=0.655775
frame:299  pts:21323776 pts_time:1665.92
lavfi.scene_score=0.634604
frame:300  pts:21369344 pts_time:1669.48
lavfi.scene_score=0.635383
frame:301  pts:21530112 pts_time:1682.04
lavfi.scene_score=0.645534
frame:302  pts:21592064 pts_time:1686.88
lavfi.scene_score=0.657199
frame:303  pts:21656064 pts_time:1691.88
lavfi.scene_score=0.658068
frame:304  pts:21679104 pts_time:1693.68
lavfi.scene_score=0.640258
frame:305  pts:21734400 pts_time:1698
lavfi.scene_score=0.475254
frame:306  pts:21761536 pts_time:1700.12
lavfi.scene_score=0.510325
frame:307  pts:22013952 pts_time:1719.84
lavfi.scene_score=0.412950
frame:308  pts:22029824 pts_time:1721.08
lavfi.scene_score=0.347146
frame:309  pts:22239744 pts_time:1737.48
lavfi.scene_score=0.493244
frame:310  pts:22307840 pts_time:1742.8
lavfi.scene_score=0.511132
frame:311  pts:22336000 pts_time:1745
lavfi.scene_score=0.484235
frame:312  pts:22477312 pts_time:1756.04
lavfi.scene_score=0.562840
frame:313  pts:22613504 pts_time:1766.68
lavfi.scene_score=0.527512
frame:314  pts:22646784 pts_time:1769.28
lavfi.scene_score=0.445028
frame:315  pts:22700032 pts_time:1773.44
lavfi.scene_score=0.400498
frame:316  pts:23171072 pts_time:1810.24
lavfi.scene_score=0.481041
frame:317  pts:23199232 pts_time:1812.44
lavfi.scene_score=0.523481
frame:318  pts:23280128 pts_time:1818.76
lavfi.scene_score=0.526159
frame:319  pts:23368192 pts_time:1825.64
lavfi.scene_score=0.533753
frame:320  pts:23421952 pts_time:1829.84
lavfi.scene_score=0.507664
frame:321  pts:23452672 pts_time:1832.24
lavfi.scene_score=0.524708
frame:322  pts:23472128 pts_time:1833.76
lavfi.scene_score=0.531815
frame:323  pts:23651328 pts_time:1847.76
lavfi.scene_score=0.575461
frame:324  pts:23730176 pts_time:1853.92
lavfi.scene_score=0.529819
frame:325  pts:23760896 pts_time:1856.32
lavfi.scene_score=0.524662
frame:326  pts:23816192 pts_time:1860.64
lavfi.scene_score=0.520062
frame:327  pts:23864832 pts_time:1864.44
lavfi.scene_score=0.475455
frame:328  pts:23933952 pts_time:1869.84
lavfi.scene_score=0.660171
frame:329  pts:23953408 pts_time:1871.36
lavfi.scene_score=0.693986
frame:330  pts:24069120 pts_time:1880.4
lavfi.scene_score=0.500343
frame:331  pts:24111104 pts_time:1883.68
lavfi.scene_score=0.552523
frame:332  pts:24186880 pts_time:1889.6
lavfi.scene_score=0.426856
frame:333  pts:24205824 pts_time:1891.08
lavfi.scene_score=0.462091
frame:334  pts:24262656 pts_time:1895.52
lavfi.scene_score=0.452386
frame:335  pts:24278016 pts_time:1896.72
lavfi.scene_score=0.491479
frame:336  pts:24314880 pts_time:1899.6
lavfi.scene_score=0.490101
frame:337  pts:24330240 pts_time:1900.8
lavfi.scene_score=0.488370
frame:338  pts:24356864 pts_time:1902.88
lavfi.scene_score=0.479142
frame:339  pts:24377344 pts_time:1904.48
lavfi.scene_score=0.419259
frame:340  pts:24409600 pts_time:1907
lavfi.scene_score=0.462393
frame:341  pts:24430080 pts_time:1908.6
lavfi.scene_score=0.463193
frame:342  pts:24461824 pts_time:1911.08
lavfi.scene_score=0.484184
frame:343  pts:24473600 pts_time:1912
lavfi.scene_score=0.495418
frame:344  pts:24525824 pts_time:1916.08
lavfi.scene_score=0.369224
frame:345  pts:24560640 pts_time:1918.8
lavfi.scene_score=0.500261
frame:346  pts:24676352 pts_time:1927.84
lavfi.scene_score=0.410765
frame:347  pts:24697856 pts_time:1929.52
lavfi.scene_score=0.581841
frame:348  pts:24766464 pts_time:1934.88
lavfi.scene_score=0.346854
frame:349  pts:25027072 pts_time:1955.24
lavfi.scene_score=0.518011
frame:350  pts:25056768 pts_time:1957.56
lavfi.scene_score=0.731865
frame:351  pts:25081856 pts_time:1959.52
lavfi.scene_score=0.737367
frame:352  pts:25263104 pts_time:1973.68
lavfi.scene_score=0.542799
frame:353  pts:25301504 pts_time:1976.68
lavfi.scene_score=1.000000
frame:354  pts:25378816 pts_time:1982.72
lavfi.scene_score=0.951160
frame:355  pts:25414656 pts_time:1985.52
lavfi.scene_score=1.000000
frame:356  pts:25440256 pts_time:1987.52
lavfi.scene_score=0.545931
frame:357  pts:25602048 pts_time:2000.16
lavfi.scene_score=0.478700
frame:358  pts:25631232 pts_time:2002.44
lavfi.scene_score=0.702568
frame:359  pts:25712128 pts_time:2008.76
lavfi.scene_score=0.717414
frame:360  pts:25730048 pts_time:2010.16
lavfi.scene_score=0.680603
frame:361  pts:25825792 pts_time:2017.64
lavfi.scene_score=0.722345
frame:362  pts:25972224 pts_time:2029.08
lavfi.scene_score=0.527402
frame:363  pts:26004480 pts_time:2031.6
lavfi.scene_score=0.730997
frame:364  pts:26058752 pts_time:2035.84
lavfi.scene_score=0.453558
frame:365  pts:26172416 pts_time:2044.72
lavfi.scene_score=0.425262
frame:366  pts:26204160 pts_time:2047.2
lavfi.scene_score=0.509431
frame:367  pts:26242048 pts_time:2050.16
lavfi.scene_score=0.662442
frame:368  pts:26262016 pts_time:2051.72
lavfi.scene_score=0.515599
frame:369  pts:26315776 pts_time:2055.92
lavfi.scene_score=0.676630
frame:370  pts:26332672 pts_time:2057.24
lavfi.scene_score=0.751385
frame:371  pts:26393600 pts_time:2062
lavfi.scene_score=0.604692
frame:372  pts:26423808 pts_time:2064.36
lavfi.scene_score=0.747823
frame:373  pts:26475008 pts_time:2068.36
lavfi.scene_score=0.704376
frame:374  pts:26542592 pts_time:2073.64
lavfi.scene_score=0.283352
frame:375  pts:26596352 pts_time:2077.84
lavfi.scene_score=0.516862
frame:376  pts:26805248 pts_time:2094.16
lavfi.scene_score=0.470738
frame:377  pts:26853376 pts_time:2097.92
lavfi.scene_score=0.423449
frame:378  pts:26927616 pts_time:2103.72
lavfi.scene_score=0.406301
frame:379  pts:26980864 pts_time:2107.88
lavfi.scene_score=0.642062
frame:380  pts:27150336 pts_time:2121.12
lavfi.scene_score=0.418483
frame:381  pts:27184640 pts_time:2123.8
lavfi.scene_score=0.442728
frame:382  pts:27277824 pts_time:2131.08
lavfi.scene_score=0.598548
frame:383  pts:27406848 pts_time:2141.16
lavfi.scene_score=0.578788
frame:384  pts:27442176 pts_time:2143.92
lavfi.scene_score=0.494169
frame:385  pts:27463680 pts_time:2145.6
lavfi.scene_score=0.594284
frame:386  pts:27482112 pts_time:2147.04
lavfi.scene_score=0.587944
frame:387  pts:27497472 pts_time:2148.24
lavfi.scene_score=0.582395
frame:388  pts:27523072 pts_time:2150.24
lavfi.scene_score=0.587057
frame:389  pts:27551744 pts_time:2152.48
lavfi.scene_score=0.570063
frame:390  pts:27578368 pts_time:2154.56
lavfi.scene_score=0.574168
frame:391  pts:27640320 pts_time:2159.4
lavfi.scene_score=0.565333
frame:392  pts:27672064 pts_time:2161.88
lavfi.scene_score=0.428130
frame:393  pts:27703808 pts_time:2164.36
lavfi.scene_score=0.465309
frame:394  pts:27812352 pts_time:2172.84
lavfi.scene_score=0.491917
frame:395  pts:27916288 pts_time:2180.96
lavfi.scene_score=0.294699
frame:396  pts:27971584 pts_time:2185.28
lavfi.scene_score=0.630284
frame:397  pts:28104192 pts_time:2195.64
lavfi.scene_score=0.565465
frame:398  pts:28218368 pts_time:2204.56
lavfi.scene_score=0.521263
frame:399  pts:28761600 pts_time:2247
lavfi.scene_score=0.585698
frame:400  pts:28779008 pts_time:2248.36
lavfi.scene_score=0.536014
frame:401  pts:28815360 pts_time:2251.2
lavfi.scene_score=0.597684
frame:402  pts:28907008 pts_time:2258.36
lavfi.scene_score=0.481003
frame:403  pts:28992000 pts_time:2265
lavfi.scene_score=0.354593
frame:404  pts:29037568 pts_time:2268.56
lavfi.scene_score=0.416526
frame:405  pts:29062656 pts_time:2270.52
lavfi.scene_score=0.442025
frame:406  pts:29112320 pts_time:2274.4
lavfi.scene_score=0.436305
frame:407  pts:29158400 pts_time:2278
lavfi.scene_score=0.418187
frame:408  pts:29243392 pts_time:2284.64
lavfi.scene_score=0.480482
frame:409  pts:29278720 pts_time:2287.4
lavfi.scene_score=0.501388
frame:410  pts:29355008 pts_time:2293.36
lavfi.scene_score=0.512050
frame:411  pts:29398528 pts_time:2296.76
lavfi.scene_score=0.453798
frame:412  pts:29417984 pts_time:2298.28
lavfi.scene_score=0.537061
frame:413  pts:29448704 pts_time:2300.68
lavfi.scene_score=0.344084
frame:414  pts:29660672 pts_time:2317.24
lavfi.scene_score=0.495216
frame:415  pts:29941760 pts_time:2339.2
lavfi.scene_score=0.475526
frame:416  pts:30169088 pts_time:2356.96
lavfi.scene_score=0.367036
frame:417  pts:30191104 pts_time:2358.68
lavfi.scene_score=0.526393
frame:418  pts:30283264 pts_time:2365.88
lavfi.scene_score=0.673618
frame:419  pts:30339072 pts_time:2370.24
lavfi.scene_score=0.496636
frame:420  pts:30352896 pts_time:2371.32
lavfi.scene_score=0.524087
frame:421  pts:30971904 pts_time:2419.68
lavfi.scene_score=0.520501
frame:422  pts:30992384 pts_time:2421.28
lavfi.scene_score=0.864286
frame:423  pts:31054336 pts_time:2426.12
lavfi.scene_score=0.685352
frame:424  pts:31080448 pts_time:2428.16
lavfi.scene_score=0.592521
frame:425  pts:31104000 pts_time:2430
lavfi.scene_score=0.293587
frame:426  pts:31143424 pts_time:2433.08
lavfi.scene_score=0.623816
frame:427  pts:31346688 pts_time:2448.96
lavfi.scene_score=0.640753
frame:428  pts:31369216 pts_time:2450.72
lavfi.scene_score=0.377583
frame:429  pts:31449600 pts_time:2457
lavfi.scene_score=0.927087
frame:430  pts:31534592 pts_time:2463.64
lavfi.scene_score=0.388572
frame:431  pts:31549440 pts_time:2464.8
lavfi.scene_score=0.458996
frame:432  pts:31564800 pts_time:2466
lavfi.scene_score=0.430643
frame:433  pts:31601152 pts_time:2468.84
lavfi.scene_score=0.506131
frame:434  pts:31628288 pts_time:2470.96
lavfi.scene_score=0.425035
frame:435  pts:31643136 pts_time:2472.12
lavfi.scene_score=0.444450
frame:436  pts:31701504 pts_time:2476.68
lavfi.scene_score=0.259086
frame:437  pts:31759872 pts_time:2481.24
lavfi.scene_score=0.428291
frame:438  pts:31780864 pts_time:2482.88
lavfi.scene_score=0.615163
frame:439  pts:31781376 pts_time:2482.92
lavfi.scene_score=0.294404
frame:440  pts:31820288 pts_time:2485.96
lavfi.scene_score=0.596467
frame:441  pts:31820800 pts_time:2486
lavfi.scene_score=0.271201
frame:442  pts:31839744 pts_time:2487.48
lavfi.scene_score=0.781150
frame:443  pts:31858176 pts_time:2488.92
lavfi.scene_score=0.308003
frame:444  pts:31872000 pts_time:2490
lavfi.scene_score=0.608308
frame:445  pts:31872512 pts_time:2490.04
lavfi.scene_score=0.278782
frame:446  pts:31906304 pts_time:2492.68
lavfi.scene_score=0.463102
frame:447  pts:31965696 pts_time:2497.32
lavfi.scene_score=0.370808
frame:448  pts:32004608 pts_time:2500.36
lavfi.scene_score=0.369770
frame:449  pts:32008192 pts_time:2500.64
lavfi.scene_score=0.302526
frame:450  pts:32046592 pts_time:2503.64
lavfi.scene_score=0.503365
frame:451  pts:32052736 pts_time:2504.12
lavfi.scene_score=0.413123
frame:452  pts:32059392 pts_time:2504.64
lavfi.scene_score=0.487665
frame:453  pts:32074240 pts_time:2505.8
lavfi.scene_score=0.683945
frame:454  pts:32074752 pts_time:2505.84
lavfi.scene_score=0.264659
frame:455  pts:32098816 pts_time:2507.72
lavfi.scene_score=0.868007
frame:456  pts:32109568 pts_time:2508.56
lavfi.scene_score=0.517229
frame:457  pts:32124928 pts_time:2509.76
lavfi.scene_score=0.389314
frame:458  pts:32138752 pts_time:2510.84
lavfi.scene_score=1.000000
frame:459  pts:32139264 pts_time:2510.88
lavfi.scene_score=0.455912
frame:460  pts:32173568 pts_time:2513.56
lavfi.scene_score=0.492496
frame:461  pts:32219136 pts_time:2517.12
lavfi.scene_score=0.797999
frame:462  pts:32219648 pts_time:2517.16
lavfi.scene_score=0.362966
frame:463  pts:32232960 pts_time:2518.2
lavfi.scene_score=0.811840
frame:464  pts:32233984 pts_time:2518.28
lavfi.scene_score=0.431248
frame:465  pts:32235520 pts_time:2518.4
lavfi.scene_score=0.477085
frame:466  pts:32236544 pts_time:2518.48
lavfi.scene_score=0.495929
frame:467  pts:32241152 pts_time:2518.84
lavfi.scene_score=0.648281
frame:468  pts:32264192 pts_time:2520.64
lavfi.scene_score=0.607680
frame:469  pts:32284672 pts_time:2522.24
lavfi.scene_score=0.656463
frame:470  pts:32301056 pts_time:2523.52
lavfi.scene_score=0.494410
frame:471  pts:32315904 pts_time:2524.68
lavfi.scene_score=0.945979
frame:472  pts:32316416 pts_time:2524.72
lavfi.scene_score=0.486239
frame:473  pts:32318464 pts_time:2524.88
lavfi.scene_score=0.327806
frame:474  pts:32332800 pts_time:2526
lavfi.scene_score=0.292828
frame:475  pts:32333824 pts_time:2526.08
lavfi.scene_score=0.533522
frame:476  pts:32344064 pts_time:2526.88
lavfi.scene_score=0.546698
frame:477  pts:32363520 pts_time:2528.4
lavfi.scene_score=0.378983
frame:478  pts:32375808 pts_time:2529.36
lavfi.scene_score=0.512347
frame:479  pts:32408576 pts_time:2531.92
lavfi.scene_score=0.521404
frame:480  pts:32421376 pts_time:2532.92
lavfi.scene_score=0.364069
frame:481  pts:32437248 pts_time:2534.16
lavfi.scene_score=0.525927
frame:482  pts:32450048 pts_time:2535.16
lavfi.scene_score=0.510164
frame:483  pts:32458240 pts_time:2535.8
lavfi.scene_score=0.692078
frame:484  pts:32468992 pts_time:2536.64
lavfi.scene_score=0.962305
frame:485  pts:32483840 pts_time:2537.8
lavfi.scene_score=0.471484
frame:486  pts:32487424 pts_time:2538.08
lavfi.scene_score=0.389042
frame:487  pts:32510464 pts_time:2539.88
lavfi.scene_score=0.695138
frame:488  pts:32527360 pts_time:2541.2
lavfi.scene_score=1.000000
frame:489  pts:32549888 pts_time:2542.96
lavfi.scene_score=0.603072
frame:490  pts:32667136 pts_time:2552.12
lavfi.scene_score=0.463004
frame:491  pts:32667648 pts_time:2552.16
lavfi.scene_score=0.284179
frame:492  pts:32670720 pts_time:2552.4
lavfi.scene_score=0.307976
frame:493  pts:32683008 pts_time:2553.36
lavfi.scene_score=0.364774
frame:494  pts:32686080 pts_time:2553.6
lavfi.scene_score=0.337729
frame:495  pts:32720384 pts_time:2556.28
lavfi.scene_score=0.260840
frame:496  pts:32729600 pts_time:2557
lavfi.scene_score=0.516907
frame:497  pts:32756736 pts_time:2559.12
lavfi.scene_score=0.673217
frame:498  pts:32772096 pts_time:2560.32
lavfi.scene_score=0.701767
frame:499  pts:32849920 pts_time:2566.4
lavfi.scene_score=0.644866
frame:500  pts:33184256 pts_time:2592.52
lavfi.scene_score=0.737737
frame:501  pts:33200640 pts_time:2593.8
lavfi.scene_score=0.689762
frame:502  pts:33266688 pts_time:2598.96
lavfi.scene_score=0.714549
frame:503  pts:33356288 pts_time:2605.96
lavfi.scene_score=0.377877
frame:504  pts:33413632 pts_time:2610.44
lavfi.scene_score=0.405078
frame:505  pts:33567232 pts_time:2622.44
lavfi.scene_score=0.605108
frame:506  pts:33652736 pts_time:2629.12
lavfi.scene_score=0.747587
frame:507  pts:33681920 pts_time:2631.4
lavfi.scene_score=0.644211
frame:508  pts:33717760 pts_time:2634.2
lavfi.scene_score=0.533165
frame:509  pts:33731072 pts_time:2635.24
lavfi.scene_score=0.444544
frame:510  pts:33742848 pts_time:2636.16
lavfi.scene_score=0.597069
frame:511  pts:33826816 pts_time:2642.72
lavfi.scene_score=0.597493
frame:512  pts:33862144 pts_time:2645.48
lavfi.scene_score=0.528200
frame:513  pts:33925632 pts_time:2650.44
lavfi.scene_score=0.635658
frame:514  pts:33937920 pts_time:2651.4
lavfi.scene_score=0.628429
frame:515  pts:34014720 pts_time:2657.4
lavfi.scene_score=0.506907
frame:516  pts:34245632 pts_time:2675.44
lavfi.scene_score=0.273541
frame:517  pts:34314240 pts_time:2680.8
lavfi.scene_score=0.543462
frame:518  pts:34413056 pts_time:2688.52
lavfi.scene_score=0.664130
frame:519  pts:34529280 pts_time:2697.6
lavfi.scene_score=0.649088
frame:520  pts:34574848 pts_time:2701.16
lavfi.scene_score=0.581422
frame:521  pts:34781696 pts_time:2717.32
lavfi.scene_score=0.623146
frame:522  pts:34797056 pts_time:2718.52
lavfi.scene_score=0.452188
frame:523  pts:34810368 pts_time:2719.56
lavfi.scene_score=0.544760
frame:524  pts:34996224 pts_time:2734.08
lavfi.scene_score=0.631935
frame:525  pts:35012096 pts_time:2735.32
lavfi.scene_score=0.660972
frame:526  pts:35043328 pts_time:2737.76
lavfi.scene_score=0.509976
frame:527  pts:35063296 pts_time:2739.32
lavfi.scene_score=0.863847
frame:528  pts:35129344 pts_time:2744.48
lavfi.scene_score=0.597435
frame:529  pts:35146240 pts_time:2745.8
lavfi.scene_score=0.520959
frame:530  pts:35225088 pts_time:2751.96
lavfi.scene_score=0.684644
frame:531  pts:35305984 pts_time:2758.28
lavfi.scene_score=0.677393
frame:532  pts:35335680 pts_time:2760.6
lavfi.scene_score=0.534899
frame:533  pts:35536896 pts_time:2776.32
lavfi.scene_score=0.479090
frame:534  pts:35577856 pts_time:2779.52
lavfi.scene_score=0.484011
frame:535  pts:35758080 pts_time:2793.6
lavfi.scene_score=0.593887
frame:536  pts:35845632 pts_time:2800.44
lavfi.scene_score=0.508602
frame:537  pts:35942912 pts_time:2808.04
lavfi.scene_score=0.455411
frame:538  pts:36025344 pts_time:2814.48
lavfi.scene_score=0.496367
frame:539  pts:36063744 pts_time:2817.48
lavfi.scene_score=0.277902
frame:540  pts:36107264 pts_time:2820.88
lavfi.scene_score=0.299811
frame:541  pts:36141056 pts_time:2823.52
lavfi.scene_score=0.517045
frame:542  pts:36410880 pts_time:2844.6
lavfi.scene_score=0.385013
frame:543  pts:36429312 pts_time:2846.04
lavfi.scene_score=0.509753
frame:544  pts:36443136 pts_time:2847.12
lavfi.scene_score=0.467969
frame:545  pts:36464128 pts_time:2848.76
lavfi.scene_score=0.450431
frame:546  pts:36557312 pts_time:2856.04
lavfi.scene_score=0.451620
frame:547  pts:36576768 pts_time:2857.56
lavfi.scene_score=0.519228
frame:548  pts:36593664 pts_time:2858.88
lavfi.scene_score=0.507738
frame:549  pts:36686336 pts_time:2866.12
lavfi.scene_score=0.571127
frame:550  pts:36708864 pts_time:2867.88
lavfi.scene_score=0.447150
frame:551  pts:36737024 pts_time:2870.08
lavfi.scene_score=0.499355
frame:552  pts:36763136 pts_time:2872.12
lavfi.scene_score=0.591903
frame:553  pts:36797440 pts_time:2874.8
lavfi.scene_score=0.599133
frame:554  pts:36898304 pts_time:2882.68
lavfi.scene_score=0.535480
frame:555  pts:36956672 pts_time:2887.24
lavfi.scene_score=0.616121
frame:556  pts:37044224 pts_time:2894.08
lavfi.scene_score=0.561551
frame:557  pts:37122560 pts_time:2900.2
lavfi.scene_score=0.480589
frame:558  pts:37138944 pts_time:2901.48
lavfi.scene_score=0.420233
frame:559  pts:37211136 pts_time:2907.12
lavfi.scene_score=0.473947
frame:560  pts:37234176 pts_time:2908.92
lavfi.scene_score=0.606986
frame:561  pts:37303808 pts_time:2914.36
lavfi.scene_score=0.321836
frame:562  pts:37344256 pts_time:2917.52
lavfi.scene_score=0.431142
frame:563  pts:37386752 pts_time:2920.84
lavfi.scene_score=0.402725
frame:564  pts:37423616 pts_time:2923.72
lavfi.scene_score=0.427175
frame:565  pts:37452288 pts_time:2925.96
lavfi.scene_score=0.272147
frame:566  pts:37506560 pts_time:2930.2
lavfi.scene_score=0.570014
frame:567  pts:37584896 pts_time:2936.32
lavfi.scene_score=0.499909
frame:568  pts:37675520 pts_time:2943.4
lavfi.scene_score=0.358344
frame:569  pts:37690368 pts_time:2944.56
lavfi.scene_score=0.494212
frame:570  pts:37703680 pts_time:2945.6
lavfi.scene_score=0.512893
frame:571  pts:37729280 pts_time:2947.6
lavfi.scene_score=0.538830
frame:572  pts:37758976 pts_time:2949.92
lavfi.scene_score=0.632648
frame:573  pts:37772800 pts_time:2951
lavfi.scene_score=0.519626
frame:574  pts:37839872 pts_time:2956.24
lavfi.scene_score=0.543186
frame:575  pts:37865984 pts_time:2958.28
lavfi.scene_score=0.544550
frame:576  pts:38067712 pts_time:2974.04
lavfi.scene_score=0.490530
frame:577  pts:38092288 pts_time:2975.96
lavfi.scene_score=0.585174
frame:578  pts:38155264 pts_time:2980.88
lavfi.scene_score=0.326347
frame:579  pts:38216192 pts_time:2985.64
lavfi.scene_score=0.506052
frame:580  pts:38264320 pts_time:2989.4
lavfi.scene_score=0.418072
frame:581  pts:38304768 pts_time:2992.56
lavfi.scene_score=0.376383
frame:582  pts:38365696 pts_time:2997.32
lavfi.scene_score=0.727974
frame:583  pts:38930432 pts_time:3041.44
lavfi.scene_score=0.252171
frame:584  pts:38936064 pts_time:3041.88
lavfi.scene_score=0.357541
frame:585  pts:39147008 pts_time:3058.36
lavfi.scene_score=0.510786
frame:586  pts:39326208 pts_time:3072.36
lavfi.scene_score=0.330649
frame:587  pts:39546880 pts_time:3089.6
lavfi.scene_score=0.537058
frame:588  pts:39813632 pts_time:3110.44
lavfi.scene_score=0.470157
frame:589  pts:39838208 pts_time:3112.36
lavfi.scene_score=0.610819
frame:590  pts:39885824 pts_time:3116.08
lavfi.scene_score=0.811156
frame:591  pts:40059392 pts_time:3129.64
lavfi.scene_score=0.518084
frame:592  pts:40136704 pts_time:3135.68
lavfi.scene_score=0.302697
frame:593  pts:40260608 pts_time:3145.36
lavfi.scene_score=0.546412
frame:594  pts:40321536 pts_time:3150.12
lavfi.scene_score=0.603850
frame:595  pts:40398848 pts_time:3156.16
lavfi.scene_score=0.501020
frame:596  pts:40441344 pts_time:3159.48
lavfi.scene_score=0.531020
frame:597  pts:40485376 pts_time:3162.92
lavfi.scene_score=0.593980
frame:598  pts:40511488 pts_time:3164.96
lavfi.scene_score=0.627797
frame:599  pts:40558592 pts_time:3168.64
lavfi.scene_score=0.435388
frame:600  pts:40585728 pts_time:3170.76
lavfi.scene_score=0.459699
frame:601  pts:40616960 pts_time:3173.2
lavfi.scene_score=0.567886
frame:602  pts:40712704 pts_time:3180.68
lavfi.scene_score=0.583317
frame:603  pts:40738304 pts_time:3182.68
lavfi.scene_score=0.610541
frame:604  pts:40759808 pts_time:3184.36
lavfi.scene_score=0.528330
frame:605  pts:40804352 pts_time:3187.84
lavfi.scene_score=0.734518
frame:606  pts:40804864 pts_time:3187.88
lavfi.scene_score=0.270860
frame:607  pts:40840192 pts_time:3190.64
lavfi.scene_score=0.347724
frame:608  pts:40885248 pts_time:3194.16
lavfi.scene_score=0.465489
frame:609  pts:40956416 pts_time:3199.72
lavfi.scene_score=0.569225
frame:610  pts:41001472 pts_time:3203.24
lavfi.scene_score=0.472961
frame:611  pts:41056768 pts_time:3207.56
lavfi.scene_score=0.605607
frame:612  pts:41087488 pts_time:3209.96
lavfi.scene_score=0.496091
frame:613  pts:41260032 pts_time:3223.44
lavfi.scene_score=0.361074
frame:614  pts:41349120 pts_time:3230.4
lavfi.scene_score=0.281777
frame:615  pts:41420800 pts_time:3236
lavfi.scene_score=0.385513
frame:616  pts:41517056 pts_time:3243.52
lavfi.scene_score=0.642096
frame:617  pts:41587200 pts_time:3249
lavfi.scene_score=0.478728
frame:618  pts:41603072 pts_time:3250.24
lavfi.scene_score=0.471494
frame:619  pts:41757184 pts_time:3262.28
lavfi.scene_score=0.611368
frame:620  pts:42289664 pts_time:3303.88
lavfi.scene_score=0.498898
frame:621  pts:42775552 pts_time:3341.84
lavfi.scene_score=0.530059
frame:622  pts:42839040 pts_time:3346.8
lavfi.scene_score=0.374462
frame:623  pts:42851840 pts_time:3347.8
lavfi.scene_score=0.498014
frame:624  pts:43086336 pts_time:3366.12
lavfi.scene_score=0.556784
frame:625  pts:43100672 pts_time:3367.24
lavfi.scene_score=0.612879
frame:626  pts:43164672 pts_time:3372.24
lavfi.scene_score=0.855752
frame:627  pts:43183104 pts_time:3373.68
lavfi.scene_score=0.646306
frame:628  pts:43239424 pts_time:3378.08
lavfi.scene_score=0.391249
frame:629  pts:43560448 pts_time:3403.16
lavfi.scene_score=0.496404
frame:630  pts:43687424 pts_time:3413.08
lavfi.scene_score=0.652292
frame:631  pts:43705344 pts_time:3414.48
lavfi.scene_score=0.639773
frame:632  pts:43735040 pts_time:3416.8
lavfi.scene_score=0.649554
frame:633  pts:43756544 pts_time:3418.48
lavfi.scene_score=0.852155
frame:634  pts:43804672 pts_time:3422.24
lavfi.scene_score=0.411918
frame:635  pts:43852800 pts_time:3426
lavfi.scene_score=0.503052
frame:636  pts:43875840 pts_time:3427.8
lavfi.scene_score=0.367327
frame:637  pts:43909120 pts_time:3430.4
lavfi.scene_score=0.380309
frame:638  pts:43942400 pts_time:3433
lavfi.scene_score=0.508562
frame:639  pts:43963392 pts_time:3434.64
lavfi.scene_score=0.656015
frame:640  pts:43987456 pts_time:3436.52
lavfi.scene_score=0.541449
frame:641  pts:44033536 pts_time:3440.12
lavfi.scene_score=0.302857
frame:642  pts:44106240 pts_time:3445.8
lavfi.scene_score=0.402395
frame:643  pts:44126208 pts_time:3447.36
lavfi.scene_score=0.637872
frame:644  pts:44141056 pts_time:3448.52
lavfi.scene_score=0.493348
frame:645  pts:44158464 pts_time:3449.88
lavfi.scene_score=0.603364
frame:646  pts:44171264 pts_time:3450.88
lavfi.scene_score=0.559260
frame:647  pts:44215296 pts_time:3454.32
lavfi.scene_score=0.604738
frame:648  pts:44254208 pts_time:3457.36
lavfi.scene_score=0.325047
frame:649  pts:44267520 pts_time:3458.4
lavfi.scene_score=0.654544
frame:650  pts:44283392 pts_time:3459.64
lavfi.scene_score=0.761351
frame:651  pts:44299776 pts_time:3460.92
lavfi.scene_score=0.601845
frame:652  pts:44313088 pts_time:3461.96
lavfi.scene_score=0.736695
frame:653  pts:44444672 pts_time:3472.24
lavfi.scene_score=0.369627
frame:654  pts:44479488 pts_time:3474.96
lavfi.scene_score=0.575765
frame:655  pts:44530176 pts_time:3478.92
lavfi.scene_score=0.414562
frame:656  pts:44583424 pts_time:3483.08
lavfi.scene_score=0.753941
frame:657  pts:44652544 pts_time:3488.48
lavfi.scene_score=0.675586
frame:658  pts:44678656 pts_time:3490.52
lavfi.scene_score=0.485387
frame:659  pts:44708864 pts_time:3492.88
lavfi.scene_score=0.785969
frame:660  pts:44709376 pts_time:3492.92
lavfi.scene_score=0.406894
frame:661  pts:44750848 pts_time:3496.16
lavfi.scene_score=0.391549
frame:662  pts:44751360 pts_time:3496.2
lavfi.scene_score=0.258197
frame:663  pts:44768256 pts_time:3497.52
lavfi.scene_score=0.491514
frame:664  pts:44783616 pts_time:3498.72
lavfi.scene_score=0.790523
frame:665  pts:44796416 pts_time:3499.72
lavfi.scene_score=0.446929
frame:666  pts:44808704 pts_time:3500.68
lavfi.scene_score=0.596074
frame:667  pts:44844544 pts_time:3503.48
lavfi.scene_score=0.430423
frame:668  pts:44988928 pts_time:3514.76
lavfi.scene_score=0.590378
frame:669  pts:44989440 pts_time:3514.8
lavfi.scene_score=0.277336
frame:670  pts:45010944 pts_time:3516.48
lavfi.scene_score=0.411049
frame:671  pts:45143552 pts_time:3526.84
lavfi.scene_score=0.442626
frame:672  pts:45564928 pts_time:3559.76
lavfi.scene_score=0.260807
frame:673  pts:45621760 pts_time:3564.2
lavfi.scene_score=0.757668
frame:674  pts:46161408 pts_time:3606.36
lavfi.scene_score=0.449448
frame:675  pts:46243328 pts_time:3612.76
lavfi.scene_score=0.970614
frame:676  pts:46243840 pts_time:3612.8
lavfi.scene_score=0.478671
frame:677  pts:46674944 pts_time:3646.48
lavfi.scene_score=0.503554
frame:678  pts:46738944 pts_time:3651.48
lavfi.scene_score=0.251348
frame:679  pts:46830592 pts_time:3658.64
lavfi.scene_score=0.509233
frame:680  pts:46960640 pts_time:3668.8
lavfi.scene_score=0.576251
frame:681  pts:46994944 pts_time:3671.48
lavfi.scene_score=0.802316
frame:682  pts:47066112 pts_time:3677.04
lavfi.scene_score=0.428684
frame:683  pts:47208960 pts_time:3688.2
lavfi.scene_score=0.451264
frame:684  pts:47356416 pts_time:3699.72
lavfi.scene_score=0.485819
frame:685  pts:47395840 pts_time:3702.8
lavfi.scene_score=0.619610
frame:686  pts:47417856 pts_time:3704.52
lavfi.scene_score=0.632668
frame:687  pts:47476224 pts_time:3709.08
lavfi.scene_score=0.860779
frame:688  pts:47729152 pts_time:3728.84
lavfi.scene_score=0.411883
frame:689  pts:47769088 pts_time:3731.96
lavfi.scene_score=0.528212
frame:690  pts:47812096 pts_time:3735.32
lavfi.scene_score=0.300736
frame:691  pts:47852032 pts_time:3738.44
lavfi.scene_score=0.426178
frame:692  pts:47892480 pts_time:3741.6
lavfi.scene_score=0.434104
frame:693  pts:48044544 pts_time:3753.48
lavfi.scene_score=0.436893
frame:694  pts:48103936 pts_time:3758.12
lavfi.scene_score=0.366222
frame:695  pts:48750080 pts_time:3808.6
lavfi.scene_score=0.374824
frame:696  pts:48876032 pts_time:3818.44
lavfi.scene_score=0.415742
frame:697  pts:48918528 pts_time:3821.76
lavfi.scene_score=0.361418
frame:698  pts:49069056 pts_time:3833.52
lavfi.scene_score=0.463827
frame:699  pts:49122816 pts_time:3837.72
lavfi.scene_score=0.342883
frame:700  pts:49160704 pts_time:3840.68
lavfi.scene_score=0.654504
frame:701  pts:49189376 pts_time:3842.92
lavfi.scene_score=1.000000
frame:702  pts:49297920 pts_time:3851.4
lavfi.scene_score=0.521146
frame:703  pts:49399296 pts_time:3859.32
lavfi.scene_score=0.368979
frame:704  pts:49418240 pts_time:3860.8
lavfi.scene_score=0.739528
frame:705  pts:49426432 pts_time:3861.44
lavfi.scene_score=0.402426
frame:706  pts:49443328 pts_time:3862.76
lavfi.scene_score=0.342003
frame:707  pts:49454080 pts_time:3863.6
lavfi.scene_score=0.423358
frame:708  pts:49477120 pts_time:3865.4
lavfi.scene_score=0.309300
frame:709  pts:49510400 pts_time:3868
lavfi.scene_score=0.433026
frame:710  pts:49519104 pts_time:3868.68
lavfi.scene_score=0.536859
frame:711  pts:49536000 pts_time:3870
lavfi.scene_score=0.549200
frame:712  pts:49562624 pts_time:3872.08
lavfi.scene_score=0.329363
frame:713  pts:49577984 pts_time:3873.28
lavfi.scene_score=0.541251
frame:714  pts:49588736 pts_time:3874.12
lavfi.scene_score=0.504323
frame:715  pts:49602048 pts_time:3875.16
lavfi.scene_score=0.576532
frame:716  pts:49602560 pts_time:3875.2
lavfi.scene_score=0.312932
frame:717  pts:49624064 pts_time:3876.88
lavfi.scene_score=0.570226
frame:718  pts:49624576 pts_time:3876.92
lavfi.scene_score=0.301378
frame:719  pts:49709568 pts_time:3883.56
lavfi.scene_score=0.337226
frame:720  pts:49737728 pts_time:3885.76
lavfi.scene_score=0.343016
frame:721  pts:49859072 pts_time:3895.24
lavfi.scene_score=0.394225
frame:722  pts:49881088 pts_time:3896.96
lavfi.scene_score=0.277552
frame:723  pts:50224128 pts_time:3923.76
lavfi.scene_score=0.930760
frame:724  pts:50224640 pts_time:3923.8
lavfi.scene_score=0.423869
frame:725  pts:50258944 pts_time:3926.48
lavfi.scene_score=0.552023
frame:726  pts:50446336 pts_time:3941.12
lavfi.scene_score=0.488339
frame:727  pts:50492416 pts_time:3944.72
lavfi.scene_score=0.350338
frame:728  pts:50511872 pts_time:3946.24
lavfi.scene_score=0.379394
frame:729  pts:50536448 pts_time:3948.16
lavfi.scene_score=0.490652
frame:730  pts:50553856 pts_time:3949.52
lavfi.scene_score=0.403978
frame:731  pts:50575872 pts_time:3951.24
lavfi.scene_score=0.354420
frame:732  pts:50595840 pts_time:3952.8
lavfi.scene_score=0.348626
frame:733  pts:50621440 pts_time:3954.8
lavfi.scene_score=0.654517
frame:734  pts:50775552 pts_time:3966.84
lavfi.scene_score=0.590571
frame:735  pts:50863616 pts_time:3973.72
lavfi.scene_score=0.597260
frame:736  pts:51042816 pts_time:3987.72
lavfi.scene_score=0.434330
frame:737  pts:51098112 pts_time:3992.04
lavfi.scene_score=0.684500
frame:738  pts:51207680 pts_time:4000.6
lavfi.scene_score=0.641805
frame:739  pts:51225088 pts_time:4001.96
lavfi.scene_score=0.326649
frame:740  pts:51450368 pts_time:4019.56
lavfi.scene_score=0.622838
frame:741  pts:51910144 pts_time:4055.48
lavfi.scene_score=0.424314
frame:742  pts:52005888 pts_time:4062.96
lavfi.scene_score=0.519205
frame:743  pts:52106240 pts_time:4070.8
lavfi.scene_score=0.579932
frame:744  pts:52164608 pts_time:4075.36
lavfi.scene_score=0.545135
frame:745  pts:52409856 pts_time:4094.52
lavfi.scene_score=0.574369
frame:746  pts:52646400 pts_time:4113
lavfi.scene_score=0.627546
frame:747  pts:52816384 pts_time:4126.28
lavfi.scene_score=0.529265
frame:748  pts:52849664 pts_time:4128.88
lavfi.scene_score=0.676354
frame:749  pts:52885504 pts_time:4131.68
lavfi.scene_score=0.704184
frame:750  pts:52915200 pts_time:4134
lavfi.scene_score=0.799223
frame:751  pts:52915712 pts_time:4134.04
lavfi.scene_score=0.338978
frame:752  pts:52964864 pts_time:4137.88
lavfi.scene_score=0.579527
frame:753  pts:53004288 pts_time:4140.96
lavfi.scene_score=0.812759
frame:754  pts:53117440 pts_time:4149.8
lavfi.scene_score=0.585492
frame:755  pts:53192192 pts_time:4155.64
lavfi.scene_score=0.584469
frame:756  pts:53246976 pts_time:4159.92
lavfi.scene_score=0.596171
frame:757  pts:53326848 pts_time:4166.16
lavfi.scene_score=0.645838
frame:758  pts:53386240 pts_time:4170.8
lavfi.scene_score=0.533086
frame:759  pts:53415936 pts_time:4173.12
lavfi.scene_score=0.597847
frame:760  pts:53475328 pts_time:4177.76
lavfi.scene_score=0.730250
frame:761  pts:53504512 pts_time:4180.04
lavfi.scene_score=0.728621
frame:762  pts:53525504 pts_time:4181.68
lavfi.scene_score=0.351337
frame:763  pts:53609984 pts_time:4188.28
lavfi.scene_score=0.576820
frame:764  pts:53629440 pts_time:4189.8
lavfi.scene_score=1.000000
frame:765  pts:53648896 pts_time:4191.32
lavfi.scene_score=0.388647
frame:766  pts:53669888 pts_time:4192.96
lavfi.scene_score=0.363743
frame:767  pts:53698048 pts_time:4195.16
lavfi.scene_score=0.351717
frame:768  pts:53770240 pts_time:4200.8
lavfi.scene_score=0.334048
frame:769  pts:53849600 pts_time:4207
lavfi.scene_score=0.706222
frame:770  pts:53876736 pts_time:4209.12
lavfi.scene_score=0.619961
frame:771  pts:53913088 pts_time:4211.96
lavfi.scene_score=0.548550
frame:772  pts:54077952 pts_time:4224.84
lavfi.scene_score=0.532918
frame:773  pts:54098432 pts_time:4226.44
lavfi.scene_score=0.555799
frame:774  pts:54098944 pts_time:4226.48
lavfi.scene_score=0.256966
frame:775  pts:54132736 pts_time:4229.12
lavfi.scene_score=0.876186
frame:776  pts:54158336 pts_time:4231.12
lavfi.scene_score=1.000000
frame:777  pts:54158848 pts_time:4231.16
lavfi.scene_score=0.428046
frame:778  pts:54203904 pts_time:4234.68
lavfi.scene_score=1.000000
frame:779  pts:54204416 pts_time:4234.72
lavfi.scene_score=0.259474
frame:780  pts:54238208 pts_time:4237.36
lavfi.scene_score=0.748390
frame:781  pts:54274048 pts_time:4240.16
lavfi.scene_score=0.905608
frame:782  pts:54274560 pts_time:4240.2
lavfi.scene_score=0.324702
frame:783  pts:54360576 pts_time:4246.92
lavfi.scene_score=1.000000
frame:784  pts:54382080 pts_time:4248.6
lavfi.scene_score=0.451375
frame:785  pts:54396928 pts_time:4249.76
lavfi.scene_score=0.691228
frame:786  pts:54428160 pts_time:4252.2
lavfi.scene_score=0.607931
frame:787  pts:54454784 pts_time:4254.28
lavfi.scene_score=0.356734
frame:788  pts:54471680 pts_time:4255.6
lavfi.scene_score=0.452051
frame:789  pts:54491136 pts_time:4257.12
lavfi.scene_score=0.301494
frame:790  pts:54519808 pts_time:4259.36
lavfi.scene_score=0.533366
frame:791  pts:54568448 pts_time:4263.16
lavfi.scene_score=0.662008
frame:792  pts:54594560 pts_time:4265.2
lavfi.scene_score=0.362369
frame:793  pts:54631424 pts_time:4268.08
lavfi.scene_score=0.296854
frame:794  pts:54673408 pts_time:4271.36
lavfi.scene_score=0.569774
frame:795  pts:54704128 pts_time:4273.76
lavfi.scene_score=0.540690
frame:796  pts:54748160 pts_time:4277.2
lavfi.scene_score=0.812640
frame:797  pts:54769152 pts_time:4278.84
lavfi.scene_score=0.569470
frame:798  pts:54782464 pts_time:4279.88
lavfi.scene_score=0.398229
frame:799  pts:54793728 pts_time:4280.76
lavfi.scene_score=0.414803
frame:800  pts:54829056 pts_time:4283.52
lavfi.scene_score=0.322698
frame:801  pts:54840832 pts_time:4284.44
lavfi.scene_score=0.311292
frame:802  pts:54853120 pts_time:4285.4
lavfi.scene_score=0.296534
frame:803  pts:54878208 pts_time:4287.36
lavfi.scene_score=0.388871
frame:804  pts:54927872 pts_time:4291.24
lavfi.scene_score=0.617752
frame:805  pts:54964224 pts_time:4294.08
lavfi.scene_score=0.606314
frame:806  pts:54994944 pts_time:4296.48
lavfi.scene_score=0.550506
frame:807  pts:55040512 pts_time:4300.04
lavfi.scene_score=0.849139
frame:808  pts:55056896 pts_time:4301.32
lavfi.scene_score=0.485678
frame:809  pts:55066624 pts_time:4302.08
lavfi.scene_score=0.645365
frame:810  pts:55090688 pts_time:4303.96
lavfi.scene_score=0.961755
frame:811  pts:55091712 pts_time:4304.04
lavfi.scene_score=0.257397
frame:812  pts:55095296 pts_time:4304.32
lavfi.scene_score=0.790801
frame:813  pts:55096320 pts_time:4304.4
lavfi.scene_score=0.370098
frame:814  pts:55099904 pts_time:4304.68
lavfi.scene_score=0.536865
frame:815  pts:55104000 pts_time:4305
lavfi.scene_score=0.552311
frame:816  pts:55105024 pts_time:4305.08
lavfi.scene_score=0.364795
frame:817  pts:55108608 pts_time:4305.36
lavfi.scene_score=0.323431
frame:818  pts:55113728 pts_time:4305.76
lavfi.scene_score=0.365779
frame:819  pts:55117312 pts_time:4306.04
lavfi.scene_score=1.000000
frame:820  pts:55135744 pts_time:4307.48
lavfi.scene_score=0.706039
frame:821  pts:55204352 pts_time:4312.84
lavfi.scene_score=0.756920
frame:822  pts:55220224 pts_time:4314.08
lavfi.scene_score=0.831681
frame:823  pts:55249920 pts_time:4316.4
lavfi.scene_score=0.586414
frame:824  pts:55362048 pts_time:4325.16
lavfi.scene_score=0.650348
frame:825  pts:55396352 pts_time:4327.84
lavfi.scene_score=0.637182
frame:826  pts:55615488 pts_time:4344.96
lavfi.scene_score=0.320043
frame:827  pts:55643136 pts_time:4347.12
lavfi.scene_score=0.257404
frame:828  pts:55711744 pts_time:4352.48
lavfi.scene_score=0.323187
frame:829  pts:55732224 pts_time:4354.08
lavfi.scene_score=0.538789
frame:830  pts:55791616 pts_time:4358.72
lavfi.scene_score=0.523947
frame:831  pts:55891968 pts_time:4366.56
lavfi.scene_score=1.000000
frame:832  pts:55945216 pts_time:4370.72
lavfi.scene_score=0.587973
frame:833  pts:55946240 pts_time:4370.8
lavfi.scene_score=0.386478
frame:834  pts:56014848 pts_time:4376.16
lavfi.scene_score=0.676338
frame:835  pts:56015360 pts_time:4376.2
lavfi.scene_score=0.338843
frame:836  pts:56066048 pts_time:4380.16
lavfi.scene_score=1.000000
frame:837  pts:56066560 pts_time:4380.2
lavfi.scene_score=0.398655
frame:838  pts:56100864 pts_time:4382.88
lavfi.scene_score=1.000000
frame:839  pts:56139776 pts_time:4385.92
lavfi.scene_score=0.851400
frame:840  pts:56140288 pts_time:4385.96
lavfi.scene_score=0.461907
frame:841  pts:56203264 pts_time:4390.88
lavfi.scene_score=0.816521
frame:842  pts:56203776 pts_time:4390.92
lavfi.scene_score=0.339841
frame:843  pts:56231936 pts_time:4393.12
lavfi.scene_score=0.432845
frame:844  pts:56248832 pts_time:4394.44
lavfi.scene_score=0.637672
frame:845  pts:56987648 pts_time:4452.16
lavfi.scene_score=0.680546
frame:846  pts:57012224 pts_time:4454.08
lavfi.scene_score=0.513266
frame:847  pts:57040896 pts_time:4456.32
lavfi.scene_score=0.523759
frame:848  pts:57229312 pts_time:4471.04
lavfi.scene_score=0.545783
frame:849  pts:57247744 pts_time:4472.48
lavfi.scene_score=0.560584
frame:850  pts:57265152 pts_time:4473.84
lavfi.scene_score=0.435122
frame:851  pts:57371648 pts_time:4482.16
lavfi.scene_score=0.398913
frame:852  pts:57725952 pts_time:4509.84
lavfi.scene_score=0.518678
frame:853  pts:57782272 pts_time:4514.24
lavfi.scene_score=0.455092
frame:854  pts:57904128 pts_time:4523.76
lavfi.scene_score=0.539624
frame:855  pts:57936384 pts_time:4526.28
lavfi.scene_score=0.662015
frame:856  pts:58025984 pts_time:4533.28
lavfi.scene_score=0.660662
frame:857  pts:58057728 pts_time:4535.76
lavfi.scene_score=0.509734
frame:858  pts:58058752 pts_time:4535.84
lavfi.scene_score=0.290622
frame:859  pts:58082816 pts_time:4537.72
lavfi.scene_score=0.274476
frame:860  pts:58566656 pts_time:4575.52
lavfi.scene_score=0.437770
frame:861  pts:58688512 pts_time:4585.04
lavfi.scene_score=0.544501
frame:862  pts:58761216 pts_time:4590.72
lavfi.scene_score=0.549280
frame:863  pts:58761728 pts_time:4590.76
lavfi.scene_score=0.266973
frame:864  pts:58917376 pts_time:4602.92
lavfi.scene_score=0.517398
frame:865  pts:58917888 pts_time:4602.96
lavfi.scene_score=0.272101
frame:866  pts:58991104 pts_time:4608.68
lavfi.scene_score=0.651877
frame:867  pts:59066368 pts_time:4614.56
lavfi.scene_score=0.555474
frame:868  pts:59415552 pts_time:4641.84
lavfi.scene_score=0.712220
frame:869  pts:59493376 pts_time:4647.92
lavfi.scene_score=0.483077
frame:870  pts:59523584 pts_time:4650.28
lavfi.scene_score=0.776936
frame:871  pts:59524096 pts_time:4650.32
lavfi.scene_score=0.319646
frame:872  pts:59828224 pts_time:4674.08
lavfi.scene_score=0.450215
frame:873  pts:59868160 pts_time:4677.2
lavfi.scene_score=0.626457
frame:874  pts:59868672 pts_time:4677.24
lavfi.scene_score=0.294092
frame:875  pts:59887616 pts_time:4678.72
lavfi.scene_score=0.805086
frame:876  pts:59932160 pts_time:4682.2
lavfi.scene_score=0.767269
frame:877  pts:60053504 pts_time:4691.68
lavfi.scene_score=0.461338
frame:878  pts:60072960 pts_time:4693.2
lavfi.scene_score=0.513068
frame:879  pts:60127232 pts_time:4697.44
lavfi.scene_score=0.710762
frame:880  pts:60145152 pts_time:4698.84
lavfi.scene_score=0.721024
frame:881  pts:60162560 pts_time:4700.2
lavfi.scene_score=0.516034
frame:882  pts:60179456 pts_time:4701.52
lavfi.scene_score=0.471825
frame:883  pts:60293632 pts_time:4710.44
lavfi.scene_score=0.308329
frame:884  pts:60562432 pts_time:4731.44
lavfi.scene_score=0.411330
frame:885  pts:60792832 pts_time:4749.44
lavfi.scene_score=0.392989
frame:886  pts:60809728 pts_time:4750.76
lavfi.scene_score=0.430989
frame:887  pts:60836864 pts_time:4752.88
lavfi.scene_score=0.384032
frame:888  pts:60872192 pts_time:4755.64
lavfi.scene_score=0.344116
frame:889  pts:61108736 pts_time:4774.12
lavfi.scene_score=0.291318
frame:890  pts:61144064 pts_time:4776.88
lavfi.scene_score=0.365550
frame:891  pts:61175296 pts_time:4779.32
lavfi.scene_score=0.400089
frame:892  pts:61353984 pts_time:4793.28
lavfi.scene_score=0.499524
frame:893  pts:61398016 pts_time:4796.72
lavfi.scene_score=0.490801
frame:894  pts:61933568 pts_time:4838.56
lavfi.scene_score=0.672253
frame:895  pts:62144512 pts_time:4855.04
lavfi.scene_score=0.638722
frame:896  pts:62219264 pts_time:4860.88
lavfi.scene_score=0.454776
frame:897  pts:62376960 pts_time:4873.2
lavfi.scene_score=0.534353
frame:898  pts:62413824 pts_time:4876.08
lavfi.scene_score=0.474727
frame:899  pts:62461952 pts_time:4879.84
lavfi.scene_score=0.364104
frame:900  pts:62578176 pts_time:4888.92
lavfi.scene_score=0.336358
frame:901  pts:62662144 pts_time:4895.48
lavfi.scene_score=0.370114
frame:902  pts:62729216 pts_time:4900.72
lavfi.scene_score=0.349506
frame:903  pts:62829568 pts_time:4908.56
lavfi.scene_score=0.353948
frame:904  pts:62919680 pts_time:4915.6
lavfi.scene_score=0.324764
frame:905  pts:63010304 pts_time:4922.68
lavfi.scene_score=0.358376
frame:906  pts:63137280 pts_time:4932.6
lavfi.scene_score=0.398528
frame:907  pts:63201792 pts_time:4937.64
lavfi.scene_score=0.430732
frame:908  pts:63283712 pts_time:4944.04
lavfi.scene_score=0.414214
frame:909  pts:63301632 pts_time:4945.44
lavfi.scene_score=0.430573
frame:910  pts:63334400 pts_time:4948
lavfi.scene_score=0.403600
frame:911  pts:63433728 pts_time:4955.76
lavfi.scene_score=0.438530
frame:912  pts:63472640 pts_time:4958.8
lavfi.scene_score=0.451927
frame:913  pts:63510528 pts_time:4961.76
lavfi.scene_score=0.484129
frame:914  pts:63533568 pts_time:4963.56
lavfi.scene_score=0.506377
frame:915  pts:63554560 pts_time:4965.2
lavfi.scene_score=0.353900
frame:916  pts:63621632 pts_time:4970.44
lavfi.scene_score=0.595173
frame:917  pts:63653888 pts_time:4972.96
lavfi.scene_score=0.519785
frame:918  pts:63654400 pts_time:4973
lavfi.scene_score=0.270757
frame:919  pts:63721984 pts_time:4978.28
lavfi.scene_score=0.528308
frame:920  pts:63722496 pts_time:4978.32
lavfi.scene_score=0.264104
frame:921  pts:63875584 pts_time:4990.28
lavfi.scene_score=0.544028
frame:922  pts:63922176 pts_time:4993.92
lavfi.scene_score=0.324008
frame:923  pts:64070144 pts_time:5005.48
lavfi.scene_score=0.457272
frame:924  pts:64230912 pts_time:5018.04
lavfi.scene_score=0.579791
frame:925  pts:64353280 pts_time:5027.6
lavfi.scene_score=0.281956
frame:926  pts:64385024 pts_time:5030.08
lavfi.scene_score=0.408405
frame:927  pts:64385536 pts_time:5030.12
lavfi.scene_score=0.258655
frame:928  pts:64399872 pts_time:5031.24
lavfi.scene_score=0.728943
frame:929  pts:64492032 pts_time:5038.44
lavfi.scene_score=1.000000
frame:930  pts:64527360 pts_time:5041.2
lavfi.scene_score=0.612804
frame:931  pts:64571392 pts_time:5044.64
lavfi.scene_score=0.671338
frame:932  pts:64647168 pts_time:5050.56
lavfi.scene_score=0.539213
frame:933  pts:64709120 pts_time:5055.4
lavfi.scene_score=0.364710
frame:934  pts:64761344 pts_time:5059.48
lavfi.scene_score=0.354086
frame:935  pts:64805888 pts_time:5062.96
lavfi.scene_score=0.335994
frame:936  pts:64882688 pts_time:5068.96
lavfi.scene_score=0.265128
frame:937  pts:65106944 pts_time:5086.48
lavfi.scene_score=0.289686
frame:938  pts:65335296 pts_time:5104.32
lavfi.scene_score=0.362139
